<?xml version="1.0" standalone="no"?>
<!DOCTYPE svg PUBLIC "-//W3C//DTD SVG 20010904//EN"
 "http://www.w3.org/TR/2001/REC-SVG-20010904/DTD/svg10.dtd">
<svg version="1.0" xmlns="http://www.w3.org/2000/svg"
 width="1500.000000pt" height="1500.000000pt" viewBox="0 0 1500.000000 1500.000000"
 preserveAspectRatio="xMidYMid meet">

<g transform="translate(0.000000,1500.000000) scale(0.100000,-0.100000)"
fill="#000000" stroke="none">
<path d="M7110 12200 c-821 -66 -1598 -423 -2178 -999 -600 -594 -952 -1354
-1023 -2206 -14 -171 -6 -532 16 -695 76 -567 267 -1070 583 -1535 249 -367
584 -695 972 -952 332 -219 774 -404 1165 -487 274 -57 407 -70 730 -70 322 0
452 12 725 69 648 137 1272 476 1738 944 387 390 652 813 833 1331 l47 135
293 -3 c340 -4 430 4 579 54 328 109 569 372 656 714 28 110 26 364 -4 473
-82 300 -286 543 -559 666 -172 77 -296 93 -682 89 l-284 -2 -47 134 c-185
531 -460 964 -861 1355 -552 538 -1203 857 -1974 965 -170 24 -546 35 -725 20z
m630 -425 c368 -47 654 -133 985 -295 619 -303 1093 -777 1411 -1411 220 -439
337 -1017 305 -1502 -38 -563 -207 -1072 -506 -1523 -233 -351 -515 -634 -863
-865 -417 -277 -874 -443 -1382 -500 -158 -18 -513 -16 -676 4 -690 85 -1304
386 -1800 881 -492 492 -790 1101 -880 1801 -20 156 -23 531 -6 680 73 615
285 1129 664 1608 187 236 506 519 771 684 418 258 884 410 1389 453 139 12
435 4 588 -15z m3656 -2476 c155 -28 329 -163 399 -310 112 -237 72 -485 -109
-665 -86 -85 -158 -128 -262 -154 -67 -18 -111 -20 -344 -20 l-267 0 13 88
c44 306 44 650 0 980 l-12 92 261 0 c144 0 288 -5 321 -11z"/>
<path d="M7265 10934 c-276 -27 -475 -73 -687 -159 -288 -118 -502 -260 -724
-480 -132 -130 -203 -216 -287 -346 -280 -430 -405 -929 -356 -1425 93 -958
786 -1741 1724 -1948 168 -37 283 -49 480 -49 351 -1 685 80 1009 246 404 206
750 558 962 979 20 39 32 74 27 78 -4 5 -125 60 -268 123 l-259 115 -51 -94
c-344 -642 -1052 -972 -1769 -824 -416 86 -803 362 -1044 745 -172 275 -259
669 -222 1006 40 374 197 697 469 970 399 398 948 558 1491 435 374 -85 691
-289 936 -602 l40 -51 242 170 243 169 -27 37 c-108 144 -274 319 -404 422
-305 243 -679 405 -1070 464 -104 15 -377 27 -455 19z"/>
<path d="M7370 9602 c-122 -34 -247 -120 -338 -232 -331 -410 -359 -1092 -58
-1395 l70 -70 13 125 c37 368 101 595 296 1055 115 273 204 512 193 522 -14
15 -116 11 -176 -5z"/>
<path d="M7607 9437 c-22 -536 -145 -1023 -372 -1478 l-54 -108 54 -6 c37 -5
78 -2 126 9 268 60 498 339 595 721 38 148 44 379 15 523 -48 232 -149 390
-300 471 l-58 31 -6 -163z"/>
<path d="M2110 4204 c-239 -46 -400 -200 -461 -445 -19 -71 -21 -103 -17 -238
4 -133 9 -168 31 -236 62 -188 183 -301 377 -351 102 -26 338 -16 448 20 l82
27 0 142 0 143 -102 -35 c-90 -31 -116 -35 -203 -36 -84 0 -106 3 -140 22 -86
46 -129 121 -147 258 -21 158 16 316 93 394 49 49 92 65 179 64 69 0 154 -22
260 -67 12 -4 25 20 58 107 62 164 62 151 0 175 -101 41 -171 54 -303 57 -71
2 -141 1 -155 -1z"/>
<path d="M3203 4195 c-209 -46 -358 -199 -407 -422 -21 -95 -21 -308 0 -411
23 -114 75 -215 148 -287 115 -113 235 -155 446 -155 211 0 331 42 446 155
119 118 170 286 161 530 -3 82 -12 165 -22 200 -58 211 -198 347 -400 390 -87
18 -288 18 -372 0z m314 -291 c89 -52 127 -153 127 -339 0 -190 -44 -299 -139
-345 -38 -19 -59 -21 -129 -19 -68 3 -89 8 -119 29 -79 53 -116 143 -124 300
-11 224 56 367 189 401 56 14 147 2 195 -27z"/>
<path d="M7620 4204 c-239 -46 -400 -200 -461 -445 -19 -71 -21 -103 -17 -238
4 -133 9 -168 31 -236 62 -188 183 -301 377 -351 102 -26 338 -16 448 20 l82
27 0 142 0 143 -102 -35 c-90 -31 -116 -35 -203 -36 -84 0 -106 3 -140 22 -86
46 -129 121 -147 258 -21 158 16 316 93 394 49 49 92 65 179 64 69 0 154 -22
260 -67 12 -4 25 20 58 107 62 164 62 151 0 175 -101 41 -171 54 -303 57 -71
2 -141 1 -155 -1z"/>
<path d="M8713 4195 c-209 -46 -358 -199 -407 -422 -21 -95 -21 -308 0 -411
23 -114 75 -215 148 -287 115 -113 235 -155 446 -155 211 0 331 42 446 155
119 118 170 286 161 530 -3 82 -12 165 -22 200 -58 211 -198 347 -400 390 -87
18 -288 18 -372 0z m314 -291 c89 -52 127 -153 127 -339 0 -190 -44 -299 -139
-345 -38 -19 -59 -21 -129 -19 -68 3 -89 8 -119 29 -79 53 -116 143 -124 300
-11 224 56 367 189 401 56 14 147 2 195 -27z"/>
<path d="M5701 4178 c-17 -45 -401 -1233 -401 -1240 0 -5 83 -8 183 -8 l184 0
23 88 c13 48 27 102 32 120 l9 32 208 0 207 0 30 -117 30 -118 186 -3 186 -2
-146 442 c-80 244 -173 529 -207 633 l-63 190 -226 3 -226 2 -9 -22z m313
-493 c31 -121 56 -223 56 -227 0 -5 -60 -8 -134 -8 l-134 0 47 183 c26 100 56
223 66 272 l19 90 12 -45 c6 -25 37 -144 68 -265z"/>
<path d="M4240 3560 l0 -632 308 5 c245 3 319 7 365 20 130 38 211 98 258 193
27 55 32 77 33 142 1 42 -6 99 -13 127 -19 65 -88 135 -160 162 l-52 19 58 30
c100 51 149 148 141 279 -7 109 -51 176 -145 225 -94 49 -129 53 -470 57
l-323 5 0 -632z m511 370 c52 -15 82 -51 82 -99 0 -85 -54 -121 -183 -121
l-80 0 0 108 c0 60 3 112 7 115 10 11 133 8 174 -3z m36 -487 c65 -31 90 -104
59 -178 -22 -53 -64 -69 -176 -70 l-95 0 -3 133 -3 132 92 0 c64 0 101 -5 126
-17z"/>
<path d="M9750 3560 l0 -630 165 0 165 0 0 240 0 240 190 0 190 0 0 135 0 135
-190 0 -190 0 0 120 0 120 205 0 205 0 0 135 0 135 -370 0 -370 0 0 -630z"/>
<path d="M10700 3560 l0 -630 165 0 165 0 2 238 3 237 188 3 187 2 0 135 0
135 -190 0 -190 0 0 120 0 120 208 2 207 3 3 133 3 132 -376 0 -375 0 0 -630z"/>
<path d="M11660 3560 l0 -630 375 0 375 0 0 140 0 140 -205 0 -205 0 0 120 0
120 190 0 190 0 0 135 0 135 -190 0 -190 0 0 100 0 100 203 2 202 3 3 133 3
132 -376 0 -375 0 0 -630z"/>
<path d="M12630 3560 l0 -630 375 0 375 0 0 140 0 140 -205 0 -205 0 0 120 0
120 190 0 190 0 0 135 0 135 -190 0 -190 0 0 100 0 100 205 0 205 0 0 135 0
135 -375 0 -375 0 0 -630z"/>
</g>
</svg>
